<?xml version="1.0" standalone="no"?>
<!DOCTYPE svg PUBLIC "-//W3C//DTD SVG 20010904//EN"
 "http://www.w3.org/TR/2001/REC-SVG-20010904/DTD/svg10.dtd">
<svg version="1.0" xmlns="http://www.w3.org/2000/svg"
 width="512.000000pt" height="512.000000pt" viewBox="0 0 512.000000 512.000000"
 preserveAspectRatio="xMidYMid meet">

<g transform="translate(0.000000,512.000000) scale(0.100000,-0.100000)"
fill="#000000" stroke="none">
<path d="M2040 3329 c-177 -22 -344 -102 -464 -223 -39 -39 -109 -125 -155
-191 -298 -425 -415 -526 -671 -581 -198 -42 -378 10 -459 133 -65 98 -76 206
-31 310 24 57 64 99 130 138 l45 27 -45 -6 c-119 -17 -209 -73 -277 -173 -114
-170 -131 -400 -42 -582 126 -258 510 -401 1079 -401 563 0 1084 154 1353 400
l57 52 57 -52 c269 -246 790 -400 1353 -400 335 0 614 51 810 147 232 115 352
329 321 577 -29 240 -170 404 -371 432 l-45 6 45 -27 c66 -39 106 -81 130
-138 45 -104 34 -212 -31 -310 -81 -123 -261 -175 -459 -133 -256 55 -373 156
-671 581 -147 211 -273 315 -453 376 -97 32 -265 54 -351 44 -110 -12 -246
-68 -312 -128 l-23 -20 -22 20 c-110 99 -302 147 -498 122z"/>
</g>
</svg>
